<svg xmlns="http://www.w3.org/2000/svg" xmlns:xlink="http://www.w3.org/1999/xlink" xmlns:fi="http://pattern.flaticon.com/" x="0" y="0" width="1920" height="900" viewBox="0 0 1120 525"><rect x="0px" y="0px" width="100%" height="100%" opacity="1" fill="#ffffff"/><defs><path d="m607.772 60.352c.037-8.254-3.248-16.176-9.117-21.981l-29.253-29.254c-5.778-5.841-13.654-9.124-21.87-9.117h-.101c-8.166.005-15.987 3.29-21.708 9.117l-132.696 132.696h-261.341v-111.424c0-16.784-13.606-30.389-30.389-30.389h-20.259c-44.734.05-80.986 36.302-81.036 81.036v448.241c2.535 44.393 39.511 78.955 83.974 78.493h493.408c16.783 0 30.388-13.605 30.388-30.388v-405.18c0-16.783-13.605-30.389-30.388-30.389h-38.492l59.764-59.764c5.815-5.724 9.098-13.537 9.116-21.697zm-245.336 192.886c-2.144.292-4.299-.462-5.794-2.026-1.508-1.498-2.253-3.6-2.026-5.713l3.839-34.44c.161-.72.364-1.431.608-2.127l39.9 39.9c-.658.142-1.256.466-1.945.547zm53.068-16.542-44.327-44.337 110.412-110.411 44.306 44.296zm80.368-169.082 15.022-15.012 44.286 44.296-15.012 15.022zm-475.611 13.422c.034-33.552 27.225-60.744 60.777-60.777h20.259c5.594 0 10.13 4.535 10.13 10.129v405.18c0 5.594-4.535 10.129-10.13 10.129h-20.259c-23.271-.007-45.417 10.01-60.777 27.491zm557.123 81.036c5.594 0 10.13 4.535 10.13 10.13v405.18c0 5.594-4.535 10.13-10.13 10.13h-493.408c-33.44.562-61.454-25.181-63.715-58.549v-2.229c.034-33.552 27.225-60.743 60.777-60.777h20.259c16.783 0 30.388-13.605 30.388-30.388v-273.497h241.082l-23.004 23.004c-6.422 6.328-10.462 14.679-11.436 23.642l-3.839 34.511c-.316 3.366.004 6.76.942 10.008h-173.356c-5.594 0-10.13 4.535-10.13 10.13 0 5.594 4.535 10.129 10.13 10.129h30.389v273.497c0 5.594 4.535 10.13 10.13 10.13s10.13-4.535 10.13-10.13v-141.813h111.424v81.036h-70.907c-5.594 0-10.129 4.535-10.129 10.129s4.535 10.13 10.129 10.13h202.59c11.189 0 20.259-9.07 20.259-20.259v-151.942c0-5.594-4.535-10.13-10.129-10.13s-10.13 4.535-10.13 10.13v50.647h-243.108v-111.424h148.985c.988.002 1.976-.052 2.958-.162l34.612-3.94c8.785-.997 16.985-4.901 23.298-11.092l96.109-96.23h58.7zm-121.554 243.108v81.036h-111.425v-81.036zm128.543-337.495-14.87 14.88-44.286-44.286 14.88-14.88c1.947-1.998 4.615-3.13 7.405-3.14 2.84.007 5.558 1.153 7.546 3.181l29.295 29.234c2.037 2.006 3.18 4.748 3.171 7.607-.009 2.79-1.141 5.459-3.141 7.404z" transform="matrix(0.0987207442522049 0 0 0.0987207442522049 123 174)" id="L1_42" fill="#f7f7f7"/><g transform="matrix(0.12096773833036423 0 0 0.12096773833036423 290 86)" id="L1_43"><path d="m360 128c13.230469 0 24-10.769531 24-24s-10.769531-24-24-24-24 10.769531-24 24 10.769531 24 24 24zm0-32c4.40625 0 8 3.59375 8 8s-3.59375 8-8 8-8-3.59375-8-8 3.59375-8 8-8zm0 0" fill="#f7f7f7"/><path d="m431 176-20.335938-48.296875c3.382813-7.207031 5.335938-15.222656 5.335938-23.703125 0-22.28125-13.113281-41.511719-32-50.519531v-37.480469c0-8.824219-7.175781-16-16-16h-16c-8.824219 0-16 7.175781-16 16v37.480469c-18.886719 9.007812-32 28.238281-32 50.519531 0 8.480469 1.953125 16.496094 5.335938 23.703125l-20.335938 48.296875h-41v-176h-96v176h-16v-106.425781l-40-60-40 60v106.425781h-56v251.3125l68.6875 68.6875h427.3125v-320zm16.121094 79.535156c.582031 1.375.878906 2.839844.878906 4.34375v.882813c0 6.199219-5.039062 11.238281-11.230469 11.238281-4.53125 0-8.59375-2.695312-10.355469-6.863281l-45.917968-109.074219c7.328125-2.894531 13.910156-7.261719 19.359375-12.78125zm.878906 80.464844v80h-96v-80zm-88-176c1.585938 0 3.144531-.105469 4.695312-.238281l18.191407 43.207031c-14.453125 6.4375-31.320313 6.4375-45.773438 0l18.191407-43.207031c1.550781.132812 3.109374.238281 4.695312.238281zm-8-144h16v32.640625c-2.625-.375-5.28125-.640625-8-.640625s-5.375.265625-8 .640625zm8 48c22.054688 0 40 17.945312 40 40s-17.945312 40-40 40-40-17.945312-40-40 17.945312-40 40-40zm-20.496094 92.0625-45.929687 109.074219c-1.75 4.167969-5.8125 6.863281-10.34375 6.863281-6.191407 0-11.230469-5.039062-11.230469-11.230469v-.882812c0-1.503907.296875-2.964844.878906-4.351563l47.265625-112.246094c5.441407 5.511719 12.03125 9.878907 19.359375 12.773438zm-291.503906 163.9375h72v48h40v16h-112zm88 32v-48h-88v-16h48v-8c0-13.230469 10.769531-24 24-24h8v-32h16v72h96v-72h28.792969l-10.65625 25.3125c-1.417969 3.359375-2.136719 6.910156-2.136719 10.566406v.882813c0 11 6.59375 20.445312 16 24.742187v22.945313c-4.726562-2.753907-10.144531-4.449219-16-4.449219-17.648438 0-32 14.351562-32 32s14.351562 32 32 32 32-14.351562 32-32v-48.464844c6.28125-1.109375 11.929688-4.351562 16-9.167968v105.632812h-128v-32zm-88-80v-48h64v16.808594c-15.648438 3.183594-28.007812 15.542968-31.191406 31.191406zm112-48h64v56h-64zm112 112c0 8.824219-7.175781 16-16 16s-16-7.175781-16-16 7.175781-16 16-16 16 7.175781 16 16zm-104-320h64v16h-32v16h32v16h-16v16h16v16h-32v16h32v16h-16v16h16v32h-64zm-64 160v-96h16v96zm9.054688-112h-34.101563l17.046875-25.574219zm-41.054688 16h16v96h-16zm-8 388.6875-36.6875-36.6875h36.6875zm416 11.3125h-400v-64h-64v-224h266.265625l-6.738281 16h-243.527344v192h288v-156.390625l10.886719-25.855469c9.167969 4.078125 19.074219 6.246094 29.113281 6.246094s19.945312-2.167969 29.113281-6.246094l22.558594 53.582032c3.632813 8.625 11.335937 14.609374 20.328125 16.199218v32.464844h-96v112h128v-112h-16v-34.496094c9.40625-4.296875 16-13.742187 16-24.742187v-.882813c0-3.65625-.71875-7.207031-2.136719-10.566406l-24.128906-57.3125h42.265625zm0 0" fill="#f7f7f7"/><path d="m96 464h176v-48h-176zm96-16h-16v-16h16zm16-16h16v16h-16zm-48 16h-16v-16h16zm96 0h-16v-16h16zm-144-16h16v16h-16zm0 0" fill="#f7f7f7"/><path d="m288 448h176v16h-176zm0 0" fill="#f7f7f7"/></g><g transform="matrix(-0.1171875 0 0 0.1171875 194 -20)" id="L1_45"><path d="M494.86,367.136h-0.553V322.35c0-111.772-78.086-208.648-186.536-232.659c-0.576-5.779-3.05-11.155-7.161-15.41    c-4.941-5.114-11.578-7.931-18.69-7.931H230.08c-7.112,0-13.749,2.817-18.69,7.931c-4.11,4.255-6.585,9.631-7.161,15.41    C95.779,113.702,17.693,210.578,17.693,322.35v44.786H17.14c-9.452,0-17.14,7.689-17.14,17.14v11.278    c0,7.463,4.721,14.02,11.747,16.317C78.368,433.654,165.113,445.65,256,445.65s177.632-11.996,244.253-33.779    c7.026-2.297,11.747-8.854,11.747-16.317v-11.278C512,374.825,504.311,367.136,494.86,367.136z M223.32,85.806    c1.787-1.849,4.188-2.869,6.76-2.869h51.839c2.572,0,4.973,1.018,6.76,2.869c1.787,1.85,2.723,4.285,2.634,6.855l-7.626,221.166    c-0.176,5.09-4.302,9.077-9.394,9.077h-36.585c-5.092,0-9.218-3.987-9.394-9.076l-7.626-221.166    C220.598,90.09,221.533,87.656,223.32,85.806z M495.413,395.555c0,0.223-0.097,0.48-0.314,0.551    C430.097,417.358,345.183,429.063,256,429.063S81.903,417.358,16.902,396.104c-0.217-0.071-0.314-0.327-0.314-0.55v-11.278    c0-0.305,0.248-0.553,0.553-0.553H335.62c4.58,0,8.294-3.713,8.294-8.294c0-4.58-3.713-8.294-8.294-8.294H34.281V322.35    c0-83.355,46.677-157.8,117.156-195.572l17.996,125.979c0.592,4.137,4.139,7.122,8.201,7.122c0.39,0,0.785-0.028,1.183-0.084    c4.535-0.648,7.686-4.849,7.038-9.383l-18.75-131.258c11.941-5.228,24.463-9.437,37.467-12.521l7.165,207.768    c0.485,14.069,11.893,25.091,25.972,25.091h36.585c14.078,0,25.486-11.022,25.972-25.091l7.165-207.767    c13.003,3.085,25.526,7.294,37.467,12.521l-18.75,131.258c-0.647,4.535,2.504,8.735,7.038,9.383    c0.398,0.056,0.793,0.084,1.183,0.084c4.061,0,7.609-2.986,8.201-7.122l17.996-125.979    c70.479,37.771,117.156,112.215,117.156,195.571v44.786h-53.635c-4.58,0-8.294,3.713-8.294,8.294c0,4.58,3.713,8.294,8.294,8.294    h70.775c0.305,0,0.553,0.248,0.553,0.553V395.555z" fill="#f7f7f7"/><path d="M388.701,367.136h-17.694c-4.58,0-8.294,3.713-8.294,8.294c0,4.58,3.713,8.294,8.294,8.294h17.694    c4.58,0,8.294-3.713,8.294-8.294C396.995,370.849,393.282,367.136,388.701,367.136z" fill="#f7f7f7"/><path d="M193.439,303.484l-2.529-17.698c-0.648-4.535-4.846-7.686-9.383-7.038c-4.535,0.648-7.686,4.849-7.038,9.383l2.528,17.698    c0.592,4.137,4.139,7.122,8.201,7.122c0.39,0,0.785-0.028,1.183-0.084C190.936,312.219,194.087,308.018,193.439,303.484z" fill="#f7f7f7"/><path d="M330.474,278.748c-4.535-0.649-8.735,2.504-9.383,7.038l-2.528,17.698c-0.647,4.535,2.504,8.735,7.038,9.383    c0.397,0.056,0.793,0.084,1.183,0.084c4.061,0,7.609-2.986,8.201-7.122l2.528-17.698    C338.159,283.597,335.008,279.396,330.474,278.748z" fill="#f7f7f7"/></g><path d="M373.339,276.011l36.922-36.924c7.347,1.244,14.749,1.544,22.124,0.895c4.484-0.394,7.672-4.537,6.852-8.963    c-0.72-3.884-4.294-6.512-8.23-6.169c-7.218,0.628-14.471,0.159-21.643-1.41c-2.526-0.551-5.164,0.221-6.994,2.049l-39.775,39.776    l-50.145-50.145l39.771-39.77c1.829-1.83,2.601-4.465,2.049-6.993c-5.269-24.118,1.995-48.921,19.435-66.351    c14.834-14.841,35.401-22.332,55.997-20.946l-46.587,46.586c-1.873,1.874-2.635,4.587-2.011,7.162l10.969,45.234    c0.67,2.764,2.829,4.922,5.592,5.592l45.235,10.969c2.575,0.622,5.288-0.139,7.162-2.011l46.585-46.586    c1.382,20.605-6.107,41.169-20.946,56.008c-4.347,4.346-9.161,8.081-14.367,11.15c-3.354,1.977-4.633,6.195-2.988,9.724v0.001    c1.903,4.08,6.91,5.606,10.785,3.315c6.277-3.709,12.076-8.211,17.312-13.446c21.996-21.997,30.652-54.379,22.589-84.506    c-0.702-2.622-2.75-4.669-5.371-5.373c-2.623-0.701-5.419,0.046-7.339,1.965l-53.988,53.989l-36.589-8.873l-8.873-36.589    l53.989-53.988c1.919-1.92,2.669-4.717,1.965-7.338c-0.702-2.622-2.751-4.669-5.373-5.372    c-30.133-8.066-62.507,0.591-84.494,22.588c-20.117,20.107-29.055,48.321-24.336,76.196l-36.92,36.918l-5.805-5.805    c-4.773-4.771-11.981-5.648-17.653-2.638l-24.608-24.608l1.021-1.021c4.118-4.118,6.789-9.552,7.138-15.367    c0.403-6.738-2.036-13.141-6.762-17.868l-1.702-1.704c18.511-28.176,61.783-67.464,101.865-85.253    c3.122-1.386,5.001-4.726,4.405-8.246c-0.38-2.249-1.829-4.189-3.797-5.341C308.203,8.664,247.269,16.917,207.558,56.626    L191.104,73.08l-0.219-0.22c-4.353-4.358-10.26-6.807-16.421-6.807h-0.011c-6.206,0-12.041,2.418-16.43,6.805L87.73,143.159    c-2.957,2.957-2.904,7.742,0.003,10.747c0.958,0.991,1.753,2.111,2.369,3.342c3.853,7.663,0.839,19.037-7.169,27.044    c-7.958,7.957-18.932,10.968-26.73,7.296c-1.343-0.622-2.563-1.457-3.627-2.485c-3.02-2.914-7.8-2.992-10.768-0.024L2.225,228.663    c-2.967,2.968-2.967,7.777,0,10.743l86.172,86.171c0.748,0.749,1.615,1.387,2.598,1.783c2.951,1.19,6.166,0.449,8.271-1.657    l39.583-39.583c2.934-2.934,2.971-7.681,0.083-10.659c-1.002-1.034-1.827-2.213-2.463-3.53c-3.789-7.771-0.813-18.82,7.236-26.869    c7.982-7.983,19.342-11.006,27.004-7.188c1.253,0.624,2.399,1.435,3.407,2.411c2.979,2.886,7.723,2.847,10.656-0.085    l11.496-11.496l24.608,24.608c-3.01,5.672-2.133,12.881,2.637,17.652c0,0,0,0,0,0.001l5.81,5.809l-81.996,81.988    c-2.967,2.966-2.967,7.775-0.001,10.741l0.002,0.002c2.966,2.967,7.776,2.967,10.741,0l76.952-76.953l5.042-5.038l6.843,6.843    l-56.714,56.715c-7.163,7.18-7.163,18.863,0.009,26.054l10.4,10.39c3.591,3.591,8.307,5.385,13.023,5.385    c4.717,0,9.433-1.795,13.023-5.385l56.709-56.708l6.845,6.845l-0.014,0.014L161.584,466.279    c-13.863,13.856-36.383,13.878-50.204,0.051c-6.709-6.705-10.397-15.613-10.385-25.087c0.012-9.472,3.719-18.392,10.434-25.11    l21.573-21.565c2.967-2.966,2.968-7.776,0.001-10.742l-0.002-0.002c-2.966-2.966-7.774-2.967-10.74-0.001l-21.573,21.565    c-9.582,9.588-14.869,22.314-14.885,35.836c-0.017,13.539,5.253,26.272,14.834,35.848c9.861,9.866,22.821,14.799,35.79,14.799    c12.992-0.001,25.995-4.951,35.899-14.849l128.597-128.608l0.019-0.019l122.617,122.617c10.169,10.168,23.638,15.286,37.04,15.286    c12.701,0,25.343-4.599,35.047-13.852c10.056-9.593,15.683-22.535,15.847-36.446c0.164-13.916-5.151-26.986-14.967-36.802    L373.339,276.011z M218.306,67.372c31.263-31.261,77.468-40.324,116.718-24.219c-37.821,20.527-74.303,54.765-92.624,81.268    l-40.552-40.591L218.306,67.372z M93.894,309.591L18.34,234.036l28.839-28.839l75.554,75.554L93.894,309.591z M132.96,234.32    c-6.532,6.532-10.79,14.591-12.453,22.719l-49.472-49.472c8.065-1.659,16.044-5.932,22.642-12.529    c7.207-7.208,11.646-16.229,12.898-25.16l51.554,51.554C149.189,222.681,140.162,227.119,132.96,234.32z M180.834,222.651    l-75.554-75.555l63.491-63.492c1.519-1.518,3.538-2.355,5.686-2.355c0.001,0,0.003,0,0.004,0c2.15,0.001,4.17,0.84,5.688,2.361    l5.576,5.588c0.001,0,0.001,0.001,0.002,0.002l58.568,58.618c1.519,1.518,2.356,3.538,2.356,5.685    c0,2.148-0.837,4.168-2.356,5.686L180.834,222.651z M207.01,217.96l35.888-35.887l24.142,24.142l-17.944,17.944l-17.944,17.944    L207.01,217.96z M215.903,376.773c-1.259,1.258-3.306,1.256-4.564-0.002l-10.393-10.383c-1.261-1.264-1.261-3.32-0.007-4.578    l56.709-56.708l14.962,14.962L215.903,376.773z M485.161,461.453c-14.021,13.368-36.837,12.839-50.858-1.184L234.387,260.353    l50.905-50.904l200.49,200.492c6.9,6.899,10.635,16.089,10.52,25.88C496.187,445.607,492.23,454.71,485.161,461.453z" transform="matrix(0.11718795448541641 0 0 0.11718795448541641 310 256.9999997854224)" id="L1_46" fill="#f7f7f7"/></defs><g fi:class="KUsePattern"><pattern id="pattern_L1_42" width="350" height="350" patternUnits="userSpaceOnUse"><use xlink:href="#L1_42" x="-350" y="-350"/><use xlink:href="#L1_42" x="0" y="-350"/><use xlink:href="#L1_42" x="350" y="-350"/><use xlink:href="#L1_42" x="-350" y="0"/><use xlink:href="#L1_42" x="0" y="0"/><use xlink:href="#L1_42" x="350" y="0"/><use xlink:href="#L1_42" x="-350" y="350"/><use xlink:href="#L1_42" x="0" y="350"/><use xlink:href="#L1_42" x="350" y="350"/></pattern><rect x="0" y="0" width="100%" height="100%" fill="url(#pattern_L1_42)"/></g><g fi:class="KUsePattern"><pattern id="pattern_L1_43" width="350" height="350" patternUnits="userSpaceOnUse"><use xlink:href="#L1_43" x="-350" y="-350"/><use xlink:href="#L1_43" x="0" y="-350"/><use xlink:href="#L1_43" x="350" y="-350"/><use xlink:href="#L1_43" x="-350" y="0"/><use xlink:href="#L1_43" x="0" y="0"/><use xlink:href="#L1_43" x="350" y="0"/><use xlink:href="#L1_43" x="-350" y="350"/><use xlink:href="#L1_43" x="0" y="350"/><use xlink:href="#L1_43" x="350" y="350"/></pattern><rect x="0" y="0" width="100%" height="100%" fill="url(#pattern_L1_43)"/></g><g fi:class="KUsePattern"><pattern id="pattern_L1_45" width="350" height="350" patternUnits="userSpaceOnUse"><use xlink:href="#L1_45" x="-350" y="-350"/><use xlink:href="#L1_45" x="0" y="-350"/><use xlink:href="#L1_45" x="350" y="-350"/><use xlink:href="#L1_45" x="-350" y="0"/><use xlink:href="#L1_45" x="0" y="0"/><use xlink:href="#L1_45" x="350" y="0"/><use xlink:href="#L1_45" x="-350" y="350"/><use xlink:href="#L1_45" x="0" y="350"/><use xlink:href="#L1_45" x="350" y="350"/></pattern><rect x="0" y="0" width="100%" height="100%" fill="url(#pattern_L1_45)"/></g><g fi:class="KUsePattern"><pattern id="pattern_L1_46" width="350" height="350" patternUnits="userSpaceOnUse"><use xlink:href="#L1_46" x="-350" y="-350"/><use xlink:href="#L1_46" x="0" y="-350"/><use xlink:href="#L1_46" x="350" y="-350"/><use xlink:href="#L1_46" x="-350" y="0"/><use xlink:href="#L1_46" x="0" y="0"/><use xlink:href="#L1_46" x="350" y="0"/><use xlink:href="#L1_46" x="-350" y="350"/><use xlink:href="#L1_46" x="0" y="350"/><use xlink:href="#L1_46" x="350" y="350"/></pattern><rect x="0" y="0" width="100%" height="100%" fill="url(#pattern_L1_46)"/></g></svg>